<svg width="512" height="512" viewBox="0 0 512 512" fill="currentColor" xmlns="http://www.w3.org/2000/svg">
  <path fill-rule="evenodd" clip-rule="evenodd" d="M256 0C114.615 0 0 114.615 0 256C0 397.385 114.615 512 256 512C397.385 512 512 397.385 512 256C512 114.615 397.385 0 256 0ZM420 180V370C420 397.6 397.6 420 370 420C342.4 420 320 397.6 320 370C320 342.4 342.4 320 370 320C375 320 380 321 384 323V140H200V182.9C206.9 181.566 214.333 181.085 220.67 182.179C227.007 183.272 233.344 186.272 238.1 190.8C242.856 195.328 245.93 201.277 246.5 207.6C247.07 213.923 245.187 220.457 241.272 225.264C237.357 230.071 231.259 233.153 224.215 234.346L420 180ZM276 370C276 397.6 253.6 420 226 420C198.4 420 176 397.6 176 370C176 342.4 198.4 320 226 320C231 320 236 321 240 323V140H420V180H276V370Z" transform="translate(0)"/>
  <!-- 
    Wait, constructing the path with a hole is complex manually without a vector tool.
    Simpler: Use a MASK.
  -->
  <defs>
    <mask id="iconMask">
      <rect width="100%" height="100%" fill="white"/>
      <path d="M330 140V330C330 357.6 307.6 380 280 380C252.4 380 230 357.6 230 330C230 302.4 252.4 280 280 280C285 280 290 281 294 283V200H186V370C186 397.6 163.6 420 136 420C108.4 420 86 397.6 86 370C86 342.4 108.4 320 136 320C141 320 146 321 150 323V140H330Z" fill="black" transform="translate(90, 40)"/>
    </mask>
  </defs>
  <circle cx="256" cy="256" r="256" fill="currentColor" mask="url(#iconMask)"/>
</svg>
